<svg width="32" height="33" viewBox="0 0 32 33" fill="none" xmlns="http://www.w3.org/2000/svg">
<mask id="mask0_40000234_7312" style="mask-type:luminance" maskUnits="userSpaceOnUse" x="0" y="0" width="32" height="33">
<path d="M31.9586 0.972412H0.265625V32.6654H31.9586V0.972412Z" fill="white"/>
</mask>
<g mask="url(#mask0_40000234_7312)">
<path d="M31.9591 16.8244C31.9589 20.5981 30.6124 24.248 28.1617 27.1177C25.7111 29.9874 22.317 31.8888 18.5899 32.4799V21.4024H22.2805L22.9826 16.8244H18.5899V13.8528C18.5899 12.6001 19.2022 11.3811 21.1738 11.3811H23.168V7.48274C21.9956 7.29333 20.8109 7.19004 19.6235 7.17376C16.0059 7.17376 13.6354 9.36452 13.6354 13.3528V16.8468H9.61336V21.4249H13.6354V32.5023C10.6427 32.0299 7.84801 30.7098 5.58236 28.6983C3.31671 26.6867 1.67497 24.068 0.851551 21.1523C0.028132 18.2366 0.0575298 15.146 0.936264 12.2464C1.815 9.34691 3.50626 6.75989 5.80976 4.79181C8.11327 2.82374 10.9325 1.55702 13.9337 1.14164C16.9348 0.726263 19.9922 1.17962 22.7436 2.44806C25.4951 3.71649 27.8254 5.74688 29.4587 8.29874C31.0919 10.8506 31.9596 13.817 31.9591 16.8468V16.8244Z" fill="#1877F2"/>
<path d="M22.2813 21.4026L22.9835 16.8246H18.5908V13.853C18.5908 12.6003 19.203 11.3813 21.1747 11.3813H23.1689V7.48293C21.9965 7.29351 20.8118 7.19022 19.6243 7.17395C16.0068 7.17395 13.6363 9.36471 13.6363 13.353V16.847H9.61426V21.4251H13.6363V32.5025C15.2779 32.7571 16.9491 32.7571 18.5908 32.5025V21.4251L22.2813 21.4026Z" fill="white"/>
</g>
</svg>
