<svg width="33" height="33" viewBox="0 0 33 33" fill="none" xmlns="http://www.w3.org/2000/svg">
<mask id="mask0_40000234_7323" style="mask-type:luminance" maskUnits="userSpaceOnUse" x="0" y="0" width="33" height="33">
<path d="M32.3805 0.953613H0.6875V32.5243H32.3805V0.953613Z" fill="white"/>
</mask>
<g mask="url(#mask0_40000234_7323)">
<path d="M16.534 32.5298C19.6697 32.5309 22.7353 31.6056 25.3431 29.8709C27.9508 28.1362 29.9835 25.6701 31.184 22.7844C32.3845 19.8988 32.6989 16.7233 32.0874 13.6596C31.4759 10.5959 29.9661 7.78176 27.7488 5.57303C25.5315 3.36429 22.7064 1.86027 19.6308 1.25115C16.5553 0.642033 13.3675 0.955215 10.4707 2.15109C7.57385 3.34696 5.09816 5.37175 3.35673 7.96942C1.6153 10.5671 0.68639 13.6209 0.687501 16.7445C0.687501 20.931 2.35704 24.9461 5.32883 27.9064C8.30063 30.8667 12.3312 32.5298 16.534 32.5298Z" fill="url(#paint0_linear_40000234_7323)"/>
<path fill-rule="evenodd" clip-rule="evenodd" d="M7.8601 16.5824C12.4775 14.5791 15.5577 13.2567 17.1006 12.6151C21.499 10.7909 22.4146 10.4775 23.0101 10.4663C23.2308 10.4586 23.4479 10.5235 23.628 10.651C23.9088 10.8748 23.9088 11.3729 23.8751 11.6974C23.6392 14.1931 22.6056 20.2532 22.0832 23.0454C21.8585 24.2317 21.4204 24.6289 20.9991 24.6681C20.0778 24.752 19.3813 24.0581 18.4881 23.4762C17.095 22.5697 16.303 21.999 14.9492 21.1093C13.3876 20.0852 14.3874 19.5201 15.2918 18.5968C15.5278 18.3562 19.5835 14.6799 19.6565 14.3497C19.6683 14.3007 19.6678 14.2495 19.655 14.2008C19.6423 14.152 19.6177 14.1071 19.5835 14.0699C19.5359 14.0386 19.4814 14.0192 19.4247 14.0133C19.368 14.0075 19.3107 14.0154 19.2577 14.0363C19.1191 14.0699 16.8909 15.5378 12.5731 18.4401C12.0792 18.8224 11.4789 19.0432 10.8541 19.0724C10.0154 18.9792 9.19001 18.7914 8.39375 18.5129C7.39948 18.1939 6.60743 18.0205 6.68046 17.4777C6.71416 17.1755 7.10738 16.8771 7.8601 16.5824Z" fill="white"/>
</g>
<defs>
<linearGradient id="paint0_linear_40000234_7323" x1="16.534" y1="0.9536" x2="16.534" y2="32.278" gradientUnits="userSpaceOnUse">
<stop stop-color="#2AABEE"/>
<stop offset="1" stop-color="#229ED9"/>
</linearGradient>
</defs>
</svg>
